PathFileType	4	(X/Y/Z)	TVC_16_BWA3_walk_RCNL2025.trc
DataRate	CameraRate	NumFrames	NumMarkers	Units	OrigDataRate	OrigDataStartFrame	OrigNumFrames
100	100	11	27	mm	100	385	615
Frame#	Time	R_Shoulder			L_Shoulder			C7			J_Notch			R_Elbow			L_Elbow			R_Wrist			L_Wrist			R_Asis			L_Asis			R_Psis			L_Psis			Sacral			Thoracic			Sternum			R_Thigh_Lateral			R_Knee_Lateral			R_Shank_Lateral			R_Ankle_Lateral			R_Heel			R_Toe			L_Thigh_Lateral			L_Knee_Lateral			L_Shank_Lateral			L_Ankle_Lateral			L_Heel			L_Toe		
		X1	Y1	Z1	X2	Y2	Z2	X3	Y3	Z3	X4	Y4	Z4	X5	Y5	Z5	X6	Y6	Z6	X7	Y7	Z7	X8	Y8	Z8	X9	Y9	Z9	X10	Y10	Z10	X11	Y11	Z11	X12	Y12	Z12	X13	Y13	Z13	X14	Y14	Z14	X15	Y15	Z15	X16	Y16	Z16	X17	Y17	Z17	X18	Y18	Z18	X19	Y19	Z19	X20	Y20	Z20	X21	Y21	Z21	X22	Y22	Z22	X23	Y23	Z23	X24	Y24	Z24	X25	Y25	Z25	X26	Y26	Z26	X27	Y27	Z27
385	3.84000000	668.285950	1296.874146	-41.069977	682.953796	1284.944214	-362.542969	620.145813	1347.119873	-196.560623	749.114990	1209.376709	-186.599808	603.170105	1003.478333	72.300140	710.323242	961.274902	-421.543274	694.990509	790.906219	100.008152	800.945129	774.234161	-350.370636	687.702393	859.946960	-62.838169	677.486206	876.911804	-325.807465	512.449036	900.427551	-134.824707	511.112091	901.645569	-241.839996	511.780563	901.036560	-188.332352	536.046448	1085.136963	-196.678391	768.565552	1015.552917	-195.415665	711.544556	596.980042	37.972752	775.804688	426.382965	-36.723255	668.049805	310.111023	20.071325	494.564606	170.927673	-38.825409	453.292816	194.832153	-91.230362	568.656250	74.047966	-72.374786	698.798462	583.458740	-398.657379	746.646973	417.990997	-287.880615	689.802063	269.782166	-343.714294	632.685242	56.497139	-253.543716	586.735046	57.391811	-209.832520	764.815491	37.371048	-212.358505
386	3.85000000	672.371155	1296.526245	-41.809555	687.263062	1284.528564	-363.361908	624.494812	1346.858765	-197.423859	753.282043	1208.946289	-187.269531	605.567078	1003.106812	70.773537	714.700989	960.855957	-422.347443	695.496582	789.735168	99.151577	805.735046	773.647461	-352.437881	691.839905	859.568970	-63.791622	681.069458	876.701843	-326.833160	516.447510	900.167297	-135.417068	514.880127	901.503357	-242.415024	515.663818	900.835327	-188.916046	540.141479	1084.958130	-197.386002	772.435730	1015.126587	-195.932083	715.208740	596.111328	36.434959	785.990906	428.567596	-39.137413	680.629333	310.971466	18.607925	509.619751	167.320709	-38.727581	467.470886	189.650787	-90.975029	587.438354	73.397316	-72.331886	702.168213	583.172974	-399.451813	748.890442	417.316772	-288.386505	690.989319	269.319855	-343.999390	632.747742	56.476185	-253.665253	586.830322	57.553032	-209.902939	764.852844	37.369289	-212.437866
387	3.86000000	676.459595	1296.242920	-42.496696	691.536377	1284.183350	-364.136414	628.838928	1346.648682	-198.227966	757.439087	1208.575073	-187.889008	607.995728	1002.804565	69.270866	718.877563	960.505432	-423.098511	696.066406	788.658417	98.198784	810.407135	773.163574	-354.496017	696.000366	859.286865	-64.701111	684.618042	876.541016	-327.805725	520.437378	900.010315	-135.946823	518.630066	901.455261	-242.933853	519.533722	900.732788	-189.440338	544.224060	1084.840454	-198.036423	776.298340	1014.783630	-196.410156	718.610535	595.217712	34.850296	795.765930	430.808167	-41.523632	692.993652	311.673950	17.221083	525.167847	163.115341	-38.735332	482.150696	183.754486	-90.857559	606.622559	72.335037	-72.479752	705.208862	582.909119	-400.160492	750.949280	416.687836	-288.883301	692.067505	268.900482	-344.291718	632.797668	56.456451	-253.789047	586.909973	57.710960	-209.980698	764.873535	37.368015	-212.520081
388	3.87000000	680.560242	1296.025391	-43.134853	695.783081	1283.909546	-364.868713	633.185181	1346.489990	-198.975983	761.592896	1208.263062	-188.463333	610.462891	1002.576111	67.797409	722.856934	960.225281	-423.807068	696.711914	787.681610	97.157585	814.956757	772.785828	-356.534912	700.185303	859.095520	-65.562881	688.134705	876.427490	-328.724701	524.419067	899.957764	-136.419220	522.364197	901.503723	-243.401627	523.391632	900.730743	-189.910423	548.298767	1084.785889	-198.630951	780.159668	1014.519043	-196.856903	721.893066	594.375366	33.246609	805.109924	433.073792	-43.846695	705.116760	312.205933	15.909788	541.186157	158.405136	-38.879181	497.331696	177.244370	-90.916733	626.152039	70.947487	-72.787521	707.937256	582.662720	-400.792389	752.825439	416.105560	-289.374573	693.048645	268.525116	-344.594086	632.836914	56.437504	-253.912750	586.975159	57.866772	-210.067322	764.878235	37.365749	-212.602325
389	3.88000000	684.682190	1295.872314	-43.727402	700.012573	1283.705933	-365.560699	637.540222	1346.381714	-199.670670	765.749695	1208.008057	-188.997650	612.975220	1002.423340	66.358704	726.648315	960.014954	-424.482819	697.443909	786.807343	96.037441	819.380646	772.513275	-358.542664	704.394470	858.987061	-66.373528	691.620972	876.358032	-329.590363	528.392456	900.007629	-136.839096	526.083435	901.648376	-243.822525	527.237946	900.828003	-190.330811	552.369873	1084.794434	-199.170547	784.024902	1014.324585	-197.279480	725.183777	593.653687	31.659618	814.006470	435.332550	-46.073658	716.987854	312.556335	14.664674	557.648254	153.283554	-39.187637	513.009277	170.228027	-91.183311	645.982788	69.326973	-73.235428	710.388855	582.433533	-401.361389	754.524109	415.570099	-289.863525	693.937988	268.194275	-344.908569	632.867126	56.419250	-254.034271	587.027344	58.021530	-210.163330	764.869080	37.361629	-212.682098
390	3.89000000	688.834961	1295.779907	-44.277599	704.233826	1283.568970	-366.213928	641.910400	1346.321045	-200.314606	769.915344	1207.805542	-189.497025	615.539124	1002.345642	64.960304	730.266052	959.871399	-425.134338	698.271790	786.035370	94.849239	823.677155	772.340759	-360.505905	708.626404	858.951965	-67.130402	695.077332	876.328369	-330.403778	532.356873	900.155457	-137.210541	529.787781	901.885864	-244.199677	531.072327	901.020660	-190.705109	556.440979	1084.864258	-199.655762	787.898193	1014.189636	-197.685074	728.584290	593.107483	30.129408	822.442688	437.552216	-48.174732	728.610718	312.716339	13.471053	574.525635	147.841751	-39.685539	529.175171	162.816406	-91.678337	666.079407	67.566078	-73.818924	712.611084	582.223572	-401.883942	756.053101	415.080414	-290.352997	694.735474	267.907623	-345.236420	632.889465	56.401852	-254.151901	587.068359	58.176090	-210.268326	764.849060	37.355434	-212.757233
391	3.90000000	693.027771	1295.742676	-44.788555	708.455322	1283.493042	-366.829620	646.301453	1346.303711	-200.910080	774.095154	1207.648926	-189.966415	618.160889	1002.340027	63.607635	733.728943	959.789429	-425.768738	699.203827	785.362732	93.605076	827.846283	772.259277	-362.410202	712.878540	858.979736	-67.831879	698.503113	876.333740	-331.166687	536.311462	900.394409	-137.536743	533.476379	902.210632	-244.534882	534.893921	901.302521	-191.035812	560.515259	1084.992188	-200.086655	791.782471	1014.101501	-198.080811	732.164368	592.771179	28.696180	830.409851	439.701385	-50.124126	740.000610	312.680969	12.312763	591.789429	142.167618	-40.392586	545.817139	155.120544	-92.412666	686.410400	65.752853	-74.549263	714.655579	582.035645	-402.375641	757.422485	414.634460	-290.845337	695.438171	267.663544	-345.577545	632.904724	56.385662	-254.264236	587.100281	58.331055	-210.380966	764.821655	37.347530	-212.826019
392	3.91000000	697.269653	1295.753174	-45.263195	712.684631	1283.470947	-367.408813	650.718689	1346.324463	-201.459030	778.293701	1207.530273	-190.410583	620.846680	1002.401489	62.305786	737.059448	959.761658	-426.391235	700.246979	784.784119	92.317989	831.889862	772.256287	-364.240433	717.147888	859.058960	-68.477577	701.896790	876.368591	-331.881470	540.255615	900.715454	-137.819901	537.147766	902.614563	-244.828644	538.701691	901.665009	-191.324272	564.595276	1085.173462	-200.462845	795.679504	1014.046082	-198.473602	735.960571	592.656372	27.396101	837.903259	441.750031	-51.900848	751.179626	312.450897	11.175838	609.411316	136.345459	-41.322243	562.917969	147.249207	-93.387558	706.945984	63.967331	-75.450996	716.570923	581.871826	-402.848785	758.644104	414.229370	-291.342285	696.042969	267.459198	-345.930786	632.913391	56.371147	-254.370209	587.125305	58.486721	-210.499115	764.790771	37.338779	-212.887390
393	3.92000000	701.569153	1295.802734	-45.704182	716.928162	1283.493652	-367.952209	655.166626	1346.376587	-201.963120	782.514954	1207.439819	-190.833984	623.602539	1002.523132	61.059406	740.283081	959.779297	-427.005280	701.407104	784.292084	91.001713	835.811340	772.316498	-365.981339	721.430969	859.178223	-69.068398	705.256226	876.427429	-332.550812	544.189087	901.107849	-138.061066	540.800354	903.087830	-245.080154	542.494720	902.097839	-191.570610	568.683228	1085.402100	-200.783508	799.590027	1014.008545	-198.870071	739.979736	592.752747	26.257961	844.922729	443.670197	-53.489346	762.171997	312.033142	10.051097	627.364441	130.455704	-42.481037	580.454102	139.307556	-94.595673	727.654968	62.279163	-76.557564	718.396912	581.732971	-403.311951	759.731384	413.861511	-291.844971	696.549133	267.290375	-346.293823	632.915710	56.358833	-254.468948	587.145569	58.643017	-210.619934	764.759705	37.330368	-212.941147
394	3.93000000	705.934143	1295.881348	-46.113895	721.191162	1283.551392	-368.460327	659.649109	1346.453003	-202.423599	786.762024	1207.367432	-191.240768	626.434204	1002.696533	59.872581	743.427124	959.832214	-427.612183	702.688782	783.877472	89.670399	839.615814	772.422485	-367.617920	725.724854	859.325928	-69.606522	708.579041	876.504272	-333.177826	548.112427	901.559326	-138.260223	544.432617	903.618835	-245.287369	546.272522	902.589081	-191.773796	572.781006	1085.671021	-201.047379	803.513855	1013.974121	-199.276398	744.205750	593.032532	25.301041	851.472168	445.436462	-54.879967	773.000244	311.440155	8.935023	645.622620	124.574829	-43.868050	598.394043	131.396347	-96.022308	748.503540	60.746582	-77.905571	720.160889	581.618652	-403.770508	760.698853	413.526672	-292.353851	696.959778	267.151825	-346.663483	632.911743	56.349239	-254.559753	587.162842	58.799465	-210.740097	764.730896	37.323551	-212.988327
395	3.94000000	710.371582	1295.978638	-46.494328	725.477112	1283.633423	-368.933502	664.169373	1346.545776	-202.841324	791.037476	1207.302002	-191.634659	629.347351	1002.912048	58.748795	746.519775	959.909363	-428.211334	704.095703	783.529724	88.338322	843.309906	772.555359	-369.136017	730.026978	859.490479	-70.095253	711.863098	876.593445	-333.765564	552.027100	902.056458	-138.416260	548.043640	904.194763	-245.447128	550.035370	903.125610	-191.931694	576.890015	1085.972168	-201.252808	807.450134	1013.928406	-199.698151	748.607788	593.457092	24.534365	857.559570	447.026154	-56.069202	783.684204	310.687866	7.828947	664.159546	118.775314	-45.474541	616.697876	123.610497	-97.646423	769.452942	59.416531	-79.528473	721.877014	581.527161	-404.228149	761.562073	413.220184	-292.868530	697.282349	267.037567	-347.036072	632.901428	56.342827	-254.641953	587.178833	58.955185	-210.855927	764.705627	37.319370	-213.031021
